<svg xmlns="http://www.w3.org/2000/svg" height="1024" preserveAspectRatio="none" style="display: block;" version="1.1" viewBox="0 0 2048 2048" width="1024">
<path d="M 0 0 L 2048 0 L 2048 2048 L 0 2048 L 0 0 z" fill="rgb(255,255,255)" transform="translate(0,0)"></path>
<path d="M 1014.94 556.397 C 1073.46 552.526 1118.41 590.347 1133.95 645.063 C 1138.82 662.181 1139.72 676.007 1140.99 693.569 C 1233.78 699.655 1361.17 741.744 1442.62 784.951 C 1481.86 805.767 1520.01 834.502 1554.65 861.934 C 1575.8 863.774 1621.32 857.65 1636.96 869.824 C 1645.5 876.477 1647.91 884.94 1649.4 895.113 C 1693.88 886.099 1730.24 873.278 1772.68 897.993 C 1822.25 926.861 1837.53 990.727 1808.05 1039.58 C 1782.97 1081.15 1751.36 1090.11 1707.82 1102.88 C 1684.44 1109.56 1660.97 1115.91 1637.4 1121.92 C 1636 1132.75 1630.79 1151.87 1627.94 1162.55 C 1606.93 1240.83 1571.74 1314.6 1524.11 1380.19 C 1510.13 1399.82 1496.18 1418.5 1479.05 1435.56 C 1411.71 1502.65 1323.26 1493.05 1236.75 1492.91 L 1038.25 1493.02 C 963.025 1492.36 887.796 1492.19 812.568 1492.52 C 778.273 1492.57 711.047 1494.68 680.338 1489.33 C 645.986 1483.49 613.353 1470.12 584.783 1450.17 C 529.257 1411.47 477.117 1312.59 449.725 1250.91 C 436.052 1220.12 414.377 1150.58 408.296 1116.76 C 350.17 1102.95 282.979 1100.71 245.391 1046.19 C 210.986 996.295 223.766 933.759 273.182 899.666 C 312.624 872.455 354.713 884.85 398.179 892.892 C 400.22 884.673 402.878 878.779 409.131 872.721 C 413.529 868.451 418.982 865.424 424.932 863.95 C 434.216 861.654 475.171 862.938 487.183 862.97 C 609.097 764.097 749.664 715.979 903.053 693.506 C 906.701 683.78 908.39 672.144 910.059 661.865 C 919.117 606.075 957.454 562.337 1014.94 556.397 z" fill="#1A2332" transform="translate(0,0)"></path>
<path d="M 467.768 935.241 C 499.115 934.783 532.042 935.699 563.571 935.735 L 797.005 935.87 L 1579.06 935.843 C 1580.07 1083.11 1558.93 1195.12 1479.14 1321.94 C 1407.55 1427.51 1384.05 1422.79 1261.21 1422.84 L 1101.15 1422.64 L 847.34 1422.66 C 802.635 1422.78 757.579 1423.08 713.048 1422.96 C 674.4 1422.86 632.726 1406.73 606.417 1378.09 C 588.248 1358.31 570.807 1328.85 556.685 1305.66 C 488.684 1194 463.682 1065.43 467.768 935.241 z" fill="rgb(255,255,255)" transform="translate(0,0)"></path>
<path d="M 1018.01 623.126 C 1056.79 621.526 1075.57 658.43 1072.69 692.544 C 1071.62 705.156 1064.41 718.298 1068.29 730.965 C 1077.73 761.742 1110.6 757.395 1135.84 760.76 C 1153.73 763.153 1171.03 765.993 1188.39 769.132 C 1279.68 785.85 1367.18 819.015 1446.61 867.011 L 1027.83 865.929 C 946.908 865.673 865.983 865.862 785.06 866.495 C 723.241 865.928 661.418 865.997 599.601 866.701 C 614.325 856.16 637.222 845.621 653.347 837.409 C 726.644 800.081 797.234 780.511 877.838 766.153 C 892.558 763.596 907.364 761.567 922.229 760.069 C 931.217 759.16 942.751 758.637 951.267 756.755 C 968.271 754.618 986.188 734.865 981.222 716.983 C 972.997 687.365 972.386 658.375 995.879 635.02 C 1002.23 628.701 1008.78 625.532 1018.01 623.126 z" fill="rgb(255,255,255)" transform="translate(0,0)"></path>
<path d="M 1709.63 951.361 C 1717.76 950.026 1727.17 951.006 1734.61 954.68 C 1743.4 959.067 1750.05 966.835 1753.02 976.207 C 1756.21 986.118 1755.22 996.902 1750.29 1006.07 C 1738.47 1027.86 1707.31 1031.39 1683.93 1038.18 L 1645.72 1049 C 1647.62 1018.98 1649 994.945 1649.42 964.677 C 1666.58 960.523 1692.52 953.565 1709.63 951.361 z" fill="rgb(255,255,255)" transform="translate(0,0)"></path>
<path d="M 322.693 951.16 C 334.8 950.639 384.225 961.817 397.33 965.551 C 396.55 991.65 398.356 1020.28 400.289 1046.22 C 392.318 1044.1 384.322 1042.09 376.302 1040.16 C 351.195 1035.04 305.498 1028.73 296.085 1000.72 C 288.317 977.605 300.264 958.583 322.693 951.16 z" fill="rgb(255,255,255)" transform="translate(0,0)"></path>
<metadata><recraft-signature>{"signed_by": "recraft", "signature_b64": "Dxlmg0imIwijAJFNiZoUYhYZbihokY731vY+nliHWQXzIuoMFEvYA0WxMeCVLVNi5Rj2rTxuCzLRxejrSYj4AA==", "signing_algo": "Ed25519", "generation_timestamp": 1777391732, "identifier": "8b50123e-42dc-4328-94ef-3fe8ebf489a7"}</recraft-signature></metadata></svg>