<svg xmlns="http://www.w3.org/2000/svg" height="1024" preserveAspectRatio="none" style="display: block;" version="1.1" viewBox="0 0 2048 2048" width="1024">
<path d="M 0 0 L 2048 0 L 2048 2048 L 0 2048 L 0 0 z" fill="rgb(254,254,254)" transform="translate(0,0)"></path>
<path d="M 1020.63 352.473 C 1141.04 353.809 1263.88 403.472 1323.49 514.258 C 1332.78 531.527 1337.41 546.678 1341.52 565.75 C 1355.08 567.348 1372.72 573.409 1385.91 577.976 C 1436.7 595.567 1479.08 619.715 1518.62 656.291 C 1590.3 722.604 1632.18 810.564 1636.07 908.071 C 1640.46 1018.25 1594.77 1122.65 1512.67 1195.42 C 1505.9 1201.42 1500.09 1206.85 1492.58 1212.39 C 1486.64 1217.39 1476.59 1222.71 1471.52 1228.26 C 1465.37 1234.98 1461.5 1251.99 1458.68 1260.53 C 1443.88 1305.28 1444.27 1350.49 1444.16 1396.96 L 1444.16 1473.93 L 1444.7 1602.9 C 1444.82 1623.98 1445.62 1645.67 1444.07 1666.53 C 1443.25 1677.65 1430.71 1691.22 1420.04 1692.45 C 1408.31 1693.82 1394.03 1693.22 1382.05 1693.19 L 1312.31 1693.1 L 1029.5 1693.19 L 763.715 1693.14 L 681.16 1693.29 C 662.783 1693.32 629.61 1696.77 615.707 1685.06 C 609.879 1680.12 605.993 1673.27 604.737 1665.74 C 603.304 1657.38 603.868 1640.8 603.937 1631.59 C 604.077 1616.04 604.107 1600.49 604.028 1584.94 L 604.021 1419.96 C 604.027 1389.54 605.087 1353.24 602.58 1322.42 C 600.79 1300.4 590.619 1249.49 578.479 1230.66 C 576.92 1228.24 555.952 1213.5 551.299 1209.74 C 472.57 1146.27 422.121 1055.03 413.181 953.492 C 405.134 856.61 436.193 760.537 499.43 686.7 C 543.97 634.51 602.075 595.654 667.321 574.428 C 677.127 571.229 696.235 565.38 706.008 564.542 C 710.363 548.593 714.616 533.624 721.988 518.755 C 776.217 409.374 904.104 354.529 1020.63 352.473 z" fill="#1A2332" transform="translate(0,0)"></path>
<path d="M 1015.2 424.433 C 1103.01 420.15 1221.32 465.74 1262.21 549.356 C 1265.97 557.043 1269.29 568.341 1270.67 576.707 C 1273.57 594.318 1272.11 614.037 1289.21 625.18 C 1304.07 635.178 1326.22 634.844 1343.62 639.667 C 1396.51 654.332 1446.44 681.146 1484.35 720.489 C 1538.05 776.987 1566.99 852.584 1564.73 930.501 C 1563.07 1008.25 1527.91 1086.64 1470.66 1139.41 C 1453.06 1155.64 1434.03 1166.91 1415.5 1181.47 C 1409.76 1185.97 1407.57 1193.57 1405.15 1200.25 C 1390.73 1239.99 1379.94 1280.66 1375.59 1322.8 C 1372.98 1348.08 1373.63 1374.13 1373.67 1399.66 L 1373.86 1502.98 L 1035.5 1502.89 L 674.472 1502.75 C 674.098 1449.34 676.709 1386.44 673.952 1334.18 C 671.351 1289.78 661.681 1246.07 645.305 1204.72 C 643.842 1200.95 638.545 1187.01 636.414 1185.45 C 618.383 1172.27 601.356 1161.11 584.56 1145.94 C 524.617 1092.69 488.754 1017.47 485.128 937.371 C 478.88 810.608 554.93 694.227 673.535 649.049 C 684.648 644.826 696.029 641.342 707.602 638.62 C 724.663 634.594 746.232 633.727 760.615 622.9 C 775.67 611.531 773.277 593.119 777.187 577.348 C 802.117 476.808 923.025 428.667 1015.2 424.433 z" fill="rgb(254,254,254)" transform="translate(0,0)"></path>
<path d="M 826.779 1218.31 C 868.551 1219.29 864.911 1249.67 864.946 1279.9 L 864.967 1333.3 L 864.941 1380.1 C 864.923 1409.85 869.084 1436.35 831.609 1441.74 C 816.649 1441.89 797.444 1432.75 795.687 1416.39 C 792.641 1388.04 794.694 1358.23 794.346 1329.53 C 794.01 1301.89 793.435 1273.51 794.813 1245.95 C 796.039 1229.53 812.188 1220.3 826.779 1218.31 z" fill="#1A2332" transform="translate(0,0)"></path>
<path d="M 1015.58 1219.11 C 1040.65 1216.91 1058.79 1228.25 1058.99 1255.01 C 1059.23 1299.17 1059.06 1343.39 1059.34 1387.56 C 1059.41 1399.6 1060.81 1413.69 1055.02 1424.46 C 1049.61 1434.5 1042.58 1438.19 1032.27 1441.41 C 1006.97 1445.37 988.561 1430.6 988.766 1404.95 C 989.135 1353.03 988.32 1301.02 989.145 1249.12 C 989.387 1233.91 1001.98 1223.29 1015.58 1219.11 z" fill="#1A2332" transform="translate(0,0)"></path>
<path d="M 1215.15 1218.24 C 1223.88 1217.81 1230.81 1219.17 1238.13 1223.9 C 1252.16 1233.01 1253.18 1246.47 1253.23 1261.61 C 1253.3 1283.93 1253.28 1306.15 1253.26 1328.42 L 1253.19 1378.42 C 1253.12 1407.54 1258.12 1435.08 1221.6 1442.02 C 1212.93 1442.17 1206.86 1441.16 1199.32 1436.81 C 1184.98 1428.52 1183.39 1414.32 1183.42 1399.38 C 1183.47 1379.42 1183.56 1359.51 1183.44 1339.58 L 1183.13 1284.69 C 1183.04 1254.54 1177.65 1225.18 1215.15 1218.24 z" fill="#1A2332" transform="translate(0,0)"></path>
<path d="M 675.061 1573.31 L 1373.81 1573.14 C 1373.87 1583.45 1374.67 1614.6 1373.42 1622.69 L 1371.84 1623.7 L 674.612 1623.94 C 674.466 1607.06 674.616 1590.18 675.061 1573.31 z" fill="rgb(254,254,254)" transform="translate(0,0)"></path>
<metadata><recraft-signature>{"signed_by": "recraft", "signature_b64": "mVNSvbB6bPuY/1XbBc3LlYm7j4b1wcLGsDyVXJ6GoxxVXjgNcWIWX4EjnB05aEZ9/YRD+F1qbMSYSeK84I3KBQ==", "signing_algo": "Ed25519", "generation_timestamp": 1777391659, "identifier": "de34187a-12d3-4d8b-b8e0-3847b9698308"}</recraft-signature></metadata></svg>