<svg xmlns="http://www.w3.org/2000/svg" height="1024" preserveAspectRatio="none" style="display: block;" version="1.1" viewBox="0 0 2048 2048" width="1024">
<path d="M 0 0 L 2048 0 L 2048 2048 L 0 2048 L 0 0 z" fill="rgb(255,255,255)" transform="translate(0,0)"></path>
<path d="M 1017.74 177.453 C 1080.45 176.247 1142.12 193.602 1194.99 227.337 C 1268.54 274.619 1322.89 349.195 1341.38 435.06 C 1359.19 518.571 1342.7 605.739 1295.61 676.974 C 1246.78 751.682 1170.19 803.849 1082.79 821.931 C 1081.4 844.487 1082.05 871.015 1082.12 893.739 L 1082.09 997.164 L 1081.96 1139.08 C 1081.61 1173.13 1081.94 1207.19 1082.93 1241.23 C 1159.3 1240.43 1161.1 1234.63 1161.15 1310.85 L 1161.11 1388.61 L 1161.11 1577.61 C 1161.06 1613.35 1160.83 1649.26 1161.05 1685 C 1161.13 1699.63 1168.23 1713.91 1168.71 1729.9 C 1169.78 1765.59 1157.15 1797.71 1133.72 1823.92 C 1108.01 1852.81 1071.86 1870.28 1033.25 1872.46 C 994.639 1876.2 947.545 1857.12 920.105 1829.78 C 892.785 1802.55 874.531 1758.09 881.538 1719.2 C 884.576 1702.34 888.154 1698.48 888.169 1680.29 L 887.862 1290.61 C 887.592 1238.89 901.016 1240.18 949.619 1240.76 C 954.504 1240.82 960.003 1240.79 964.951 1240.8 L 965.022 821.905 C 902.72 807.866 855.752 785.849 807.541 742.817 C 745.819 687.726 704.407 602.48 700.461 519.537 C 696.179 432.682 726.679 347.7 785.214 283.389 C 832.915 231.184 898.687 195.034 968.319 181.939 C 984.592 178.879 1001.22 178.156 1017.74 177.453 z" fill="#1A2332" transform="translate(0,0)"></path>
<path d="M 991.934 243.562 C 997.636 254.797 984.516 299.964 999.135 314.374 C 1012.7 327.741 1027.43 331.583 1044.55 320.191 C 1058.79 310.722 1057.21 290.377 1057.06 275.449 C 1056.95 265.086 1057 254.104 1057.03 243.438 C 1097.79 249.154 1136.66 264.319 1170.52 287.724 C 1210.84 315.057 1244.47 356.938 1263.26 401.962 C 1272.04 423.001 1277.43 446.574 1281.66 468.99 C 1253.86 469.298 1197.83 458.713 1198.09 499.478 C 1198.18 508.517 1201.85 517.152 1208.28 523.505 C 1221.64 536.514 1261.78 532.256 1281.22 532.088 C 1279.75 573.718 1255.72 625.465 1231.3 658.607 C 1189.7 715.405 1127.11 753.212 1057.48 763.609 C 1054.71 763.017 1055.54 760.302 1055.29 757.248 C 1053.6 737.607 1060.83 709.125 1047.09 693.018 C 1037 681.118 1013.8 678.962 1002.5 690.255 C 986.555 706.185 991.289 741.926 991.372 763.542 C 939.55 753.968 901.447 739.161 859.928 704.914 C 808.654 662.621 772.402 598.541 766.294 532.012 C 784.585 531.879 824.564 536.549 838.489 524.116 C 857.993 506.701 847.703 471.094 820.155 468.802 C 802.349 467.321 784.309 468.748 766.234 468.119 C 772.759 422.083 791.087 378.518 819.434 341.662 C 861.543 287.257 923.648 251.937 991.934 243.562 z" fill="rgb(255,255,255)" transform="translate(0,0)"></path>
<path d="M 1151.32 332.167 C 1171.29 329.791 1188.88 340.274 1191.3 361.03 C 1193.67 381.394 1169.23 398.277 1156.45 411.98 C 1131.28 438.977 1101.78 464.194 1077.48 491.902 C 1073.45 526.695 1054.37 549.607 1016.49 545.817 C 1007.5 544.135 999.795 540.664 992.711 534.883 C 982.175 526.175 975.66 513.537 974.676 499.905 C 973.55 485.942 978.316 472.145 987.82 461.855 C 1001.1 447.253 1015.44 443.886 1034.07 442.712 L 1098.79 377.841 C 1111.75 364.844 1135.49 337.688 1151.32 332.167 z" fill="#1A2332" transform="translate(0,0)"></path>
<path d="M 953.02 1306.21 C 1000.99 1305.54 1048.97 1305.83 1096.92 1307.07 C 1096.47 1367.75 1096.45 1428.43 1096.86 1489.11 L 1096.53 1675.2 C 1048.69 1675.95 1000.84 1676.11 952.998 1675.67 L 952.979 1435.81 C 952.975 1393.12 952.163 1348.72 953.02 1306.21 z" fill="rgb(255,255,255)" transform="translate(0,0)"></path>
<path d="M 944.914 1740.34 C 996.323 1739.66 1053.58 1739.04 1104.78 1740.42 C 1101.25 1760.16 1094.22 1771.87 1081.03 1786.56 C 1046.58 1822.25 982.737 1814.03 956.173 1772.99 C 949.961 1763.39 945.058 1751.91 944.914 1740.34 z" fill="rgb(255,255,255)" transform="translate(0,0)"></path>
<metadata><recraft-signature>{"signed_by": "recraft", "signature_b64": "4q14pHTm7vW3jXMY/PxrgN/asQQeW5aqmjRzwkXaK8+aAlOupeANkE4kTv9IKZTRJd9uUnwIrnwTv5oEDsP7DA==", "signing_algo": "Ed25519", "generation_timestamp": 1777391721, "identifier": "f8fd03f4-5180-4974-a3ce-6181f2ee76da"}</recraft-signature></metadata></svg>