<svg xmlns="http://www.w3.org/2000/svg" height="1024" preserveAspectRatio="none" style="display: block;" version="1.1" viewBox="0 0 2048 2048" width="1024">
<path d="M 0 0 L 2048 0 L 2048 2048 L 0 2048 L 0 0 z" fill="rgb(255,255,255)" transform="translate(0,0)"></path>
<path d="M 1078.32 333.405 C 1081.46 332.987 1087.55 332.916 1090.81 332.863 C 1113.17 332.452 1134.72 341.184 1150.48 357.038 C 1176.35 382.706 1174.34 407.853 1174.53 441.429 C 1174.67 461.195 1174.69 480.963 1174.59 500.73 L 1174.98 656.782 L 1394.16 656.972 C 1419.01 656.926 1443.89 656.986 1468.74 656.877 C 1484.76 656.807 1499.28 658.788 1508.22 674.394 C 1511.02 679.354 1512.68 684.874 1513.08 690.555 C 1514.53 708.985 1504.28 761.966 1499.11 781.652 C 1466.27 906.546 1386.25 1010.44 1273.8 1074.72 C 1313.36 1075.46 1353.13 1074.41 1392.75 1074.96 C 1431.99 1075.65 1471.27 1068.63 1499.36 1102.82 C 1522.48 1130.96 1522.88 1169.66 1528.17 1205.01 L 1545.29 1314.29 C 1555.11 1371.95 1564.3 1429.71 1572.87 1487.56 C 1576.17 1510.01 1581.58 1536.71 1582.51 1558.75 C 1583.88 1591.39 1560.02 1623.67 1529.78 1634.62 C 1507.76 1642.6 1484.97 1638.29 1462.05 1639.04 C 1454.19 1639.3 1446.31 1638.11 1438.58 1639.18 C 1436.59 1639.46 1436.75 1640.4 1435.76 1642.15 L 1436.45 1644.14 C 1446.7 1650.27 1465.55 1639.29 1477.1 1665.55 C 1481.3 1675.02 1481.33 1685.83 1477.2 1695.34 C 1473.48 1703.94 1466.34 1710.6 1457.49 1713.71 C 1443.32 1718.67 1413.8 1715.2 1397.64 1715.91 C 1381.38 1716.62 1362.81 1716.32 1346.47 1715.91 C 1310.49 1715.01 1295.9 1668.22 1328.06 1649.83 C 1337.39 1644.39 1350.73 1648.18 1361.46 1645.69 C 1362.26 1642.62 1362.07 1643.84 1361.43 1640.47 C 1356.23 1637.33 1266.78 1639.51 1255.04 1639.5 L 982.523 1639.47 L 794.467 1639.18 L 736.089 1639.54 C 728.108 1639.52 692.689 1638.04 687.808 1640.64 L 687.412 1642.67 C 692.049 1648.82 717.499 1642.99 728.641 1656.51 C 747.146 1674.89 735.511 1712.8 708.272 1715.21 C 674.833 1718.18 636.077 1715.11 602.023 1716.13 C 592.247 1716.42 581.648 1711.21 575.497 1703.78 C 568.886 1695.72 565.865 1685.3 567.136 1674.95 C 568.928 1660.35 578.693 1648.87 593.6 1646.29 C 598.582 1645.43 605.036 1646.66 608.9 1643.56 C 609.285 1640.76 609.568 1642.03 607.964 1639.66 C 602.908 1638.59 577.104 1639.49 570.388 1639.56 C 538.592 1640.02 511.761 1639.41 488.307 1615.09 C 457.322 1582.96 463.724 1553.75 470.494 1514.11 C 475.54 1484.56 480.941 1454.25 485.435 1424.89 L 517.494 1218.89 C 521.956 1191.43 525.065 1162.42 531.125 1135.45 C 534.634 1121.22 541.861 1109.94 551.809 1099.62 C 581.702 1068.6 620.072 1074.79 659.734 1074.77 C 697.123 1074.55 734.514 1074.74 771.9 1075.32 C 664.896 1017.42 581.309 904.8 551.643 787.924 C 544.178 758.517 537.921 729.817 535.915 699.396 C 535.182 688.293 537.813 676.703 545.761 668.604 C 559.899 653.758 581.605 656.847 600.351 656.86 L 661.471 656.951 L 874.882 656.836 L 874.979 549.263 C 874.934 520.571 873.216 479.076 879.312 452.586 C 884.14 431.857 893.728 412.536 907.317 396.155 C 948.721 347.184 1018 338.715 1078.32 333.405 z" fill="#1A2332" transform="translate(0,0)"></path>
<path d="M 607.449 1150.33 C 639.342 1149.06 676.271 1150.03 708.725 1150.02 L 892.206 1149.77 L 1443.42 1149.93 C 1456.34 1221.87 1465.47 1290.86 1476.92 1362.66 L 1495.75 1484.62 C 1497.53 1495.96 1508.58 1552.25 1505.61 1560.26 C 1496.71 1567.7 1453.48 1564.94 1439.55 1564.87 L 806.479 1564.76 L 629.374 1565 L 576.069 1565.14 C 568.566 1565.16 545.757 1567.05 541.312 1561.35 C 538.433 1546.75 557.815 1442.66 561.103 1422.15 L 588.439 1248.05 C 591.751 1228.16 594.638 1208.21 597.096 1188.2 C 598.45 1177.81 599.756 1166.31 601.743 1155.97 C 602.268 1153.24 605.059 1151.82 607.449 1150.33 z" fill="rgb(255,255,255)" transform="translate(0,0)"></path>
<path d="M 1011.2 1268.59 C 1072.08 1261.61 1127.1 1305.31 1134.1 1366.19 C 1141.09 1427.08 1097.41 1482.11 1036.53 1489.12 C 975.625 1496.13 920.569 1452.43 913.572 1391.53 C 906.574 1330.62 950.286 1275.57 1011.2 1268.59 z" fill="#1A2332" transform="translate(0,0)"></path>
<path d="M 1015.47 1343.75 C 1034.71 1339.14 1054.05 1350.97 1058.71 1370.2 C 1063.37 1389.42 1051.58 1408.79 1032.36 1413.49 C 1013.08 1418.2 993.642 1406.37 988.972 1387.08 C 984.302 1367.8 996.175 1348.38 1015.47 1343.75 z" fill="rgb(218,147,136)" transform="translate(0,0)"></path>
<path d="M 613.895 731.016 L 1433.47 731.062 C 1431.36 752.676 1423.14 779.792 1415.76 800.219 C 1381.8 894.275 1304.63 979.148 1213.35 1020.78 C 1167.29 1044.01 1113.55 1053.7 1062.73 1058.04 C 1061.59 1044.03 1062.03 1027.91 1062.06 1013.7 L 1062.22 947.294 C 1062.24 938.514 1062.85 914.719 1061.36 907.54 C 1059.89 900.799 1056.57 894.598 1051.79 889.628 C 1030.79 867.426 989.672 878.607 986.031 909.877 C 983.993 927.375 984.869 946.322 984.935 964.009 C 984.745 995.199 984.973 1026.39 985.617 1057.58 C 908.869 1054.66 834.588 1029.69 771.669 985.645 C 687.225 925.205 630.425 833.536 613.895 731.016 z" fill="rgb(255,255,255)" transform="translate(0,0)"></path>
<path d="M 1083.68 407.438 C 1091.81 407.201 1100.03 406.452 1100.05 417.073 C 1100.1 442.391 1100.02 467.714 1100.01 493.034 C 1099.87 547.602 1100 602.17 1100.41 656.737 C 1055.88 657.047 1011.36 657.113 966.831 656.934 L 949.007 656.727 L 949.257 537.962 C 949.236 517.623 947.471 492.73 950.559 473.149 C 959.464 416.692 1039.23 409.742 1083.68 407.438 z" fill="rgb(255,255,255)" transform="translate(0,0)"></path>
<metadata><recraft-signature>{"signed_by": "recraft", "signature_b64": "U9trdy/IB8ptbSr1/vyVQvDThk+vMogtcxTveF1TWCHuytRWWqcjQDD6uDaEAo/Z4sHDXgbCIlXRKqgQ/bvoDg==", "signing_algo": "Ed25519", "generation_timestamp": 1777391683, "identifier": "99a65e00-6955-46dc-8503-c1817bb97213"}</recraft-signature></metadata></svg>