<svg xmlns="http://www.w3.org/2000/svg" height="1024" preserveAspectRatio="none" style="display: block;" version="1.1" viewBox="0 0 2048 2048" width="1024">
<path d="M 0 0 L 2048 0 L 2048 2048 L 0 2048 L 0 0 z" fill="rgb(255,255,255)" transform="translate(0,0)"></path>
<path d="M 469.841 321.36 L 1212.57 321.962 L 1447.21 321.474 C 1478.58 321.181 1509.95 321.183 1541.33 321.48 C 1559.84 321.69 1589.15 318.204 1602.58 332.072 C 1616.57 346.521 1611.29 369.599 1607.92 387.316 C 1596.54 444.522 1568.68 497.155 1527.79 538.748 C 1458.86 607.864 1362.98 650.726 1264.85 651.889 C 1243.33 652.144 1221.77 652.089 1200.25 652.13 L 1059.99 651.994 C 1059.26 688.989 1060.12 729.751 1060.63 766.908 L 1297.14 766.751 L 1362.87 766.507 C 1378.37 766.435 1396.55 765.678 1411.79 768.489 C 1451.23 775.766 1490.54 808.706 1499.76 848.556 C 1505.58 873.729 1508.69 901.541 1513.1 927.338 L 1545.6 1124.19 L 1596.7 1430.61 L 1609.26 1506.35 C 1611.46 1519.43 1616.02 1542.76 1615.98 1555.28 C 1615.87 1584.95 1602.55 1616.53 1581.22 1637.25 C 1545.28 1672.18 1504.96 1667.21 1459.5 1667.07 L 1439.54 1667.07 C 1438.65 1693.67 1446.98 1724.68 1407.6 1725.73 C 1381.75 1726.41 1355.83 1725.33 1329.87 1725.79 C 1305.15 1726.23 1272.35 1731.06 1271.03 1696.27 C 1270.69 1686.78 1270.95 1677.38 1270.7 1667.92 C 1113.57 1666.34 956.425 1666.18 799.29 1667.44 C 798.891 1682.53 802.817 1705.8 791.985 1717.48 C 785.284 1724.7 777.774 1725.64 768.454 1725.66 C 749.451 1725.69 730.34 1725.35 711.33 1725.45 C 698.981 1725.29 663.883 1726.79 653.814 1724.62 C 648.95 1723.56 644.499 1721.1 640.998 1717.56 C 631.08 1707.63 634.656 1682.72 634.76 1667.84 C 613.448 1667.64 592.136 1667.54 570.823 1667.56 C 526.027 1667.44 500.327 1668.64 464.4 1634.39 C 444.343 1615.26 432.471 1584.36 432.427 1556.89 C 432.405 1543.51 435.725 1526.32 437.992 1512.66 L 447.43 1455.24 C 461.448 1364.68 476.456 1274.27 492.452 1184.03 L 527.985 971.134 C 531.61 948.553 535.853 925.714 539.537 903.251 C 546.357 861.658 545.611 831.945 577.615 800.298 C 593.897 784.085 614.545 772.961 637.041 768.283 C 652.086 765.232 676.448 765.979 692.566 766.023 L 764.761 766.328 L 988.424 767.033 C 988.027 728.712 988.762 690.531 988.291 652.207 C 939.998 651.566 891.153 652.599 842.786 652.055 C 814.693 651.399 785.368 653.311 757.437 650.554 C 609.821 635.984 456.948 528.221 438.351 372.965 C 435.134 346.109 438.367 325.998 469.841 321.36 z" fill="#1A2332" transform="translate(0,0)"></path>
<path d="M 656.778 837.408 C 712.083 835.901 772.767 837.157 828.618 837.156 L 1146.11 837.169 L 1313.94 837.369 L 1366.23 837.353 C 1375.03 837.354 1385.92 836.91 1394.53 837.712 C 1413.39 839.471 1430.3 856.065 1433.78 874.551 C 1436.93 891.265 1439.37 908.393 1442.06 925.325 L 1456.28 1011.39 L 1511.98 1355.06 L 1534.48 1493.49 C 1536.7 1507.01 1538.91 1520.79 1541.15 1534.17 C 1544.54 1554.41 1548.41 1569.11 1532.21 1585.02 C 1517.11 1599.85 1491.5 1596.24 1471.6 1596.31 L 1390.54 1596.33 L 815.588 1596.19 L 636.157 1596.31 C 604.693 1596.34 572.637 1596.69 541.175 1595.85 C 533.254 1595.63 525.649 1593.47 519.155 1588.75 C 510.447 1582.43 504.746 1572.79 503.406 1562.12 C 502.328 1553.75 508.739 1518.37 510.364 1508.17 C 515.827 1473.6 521.467 1439.05 527.284 1404.53 L 588.743 1039.43 L 607.638 921.452 C 610.231 905.42 612.822 889.336 615.467 873.316 C 619.153 850.994 635.105 839.575 656.778 837.408 z" fill="rgb(255,255,255)" transform="translate(0,0)"></path>
<path d="M 1002.96 911.433 C 1171.96 900.117 1318.03 1028.16 1328.94 1197.18 C 1339.85 1366.2 1211.46 1511.97 1042.42 1522.48 C 873.938 1532.96 728.767 1405.09 717.89 1236.64 C 707.013 1068.19 834.534 922.711 1002.96 911.433 z" fill="#1A2332" transform="translate(0,0)"></path>
<path d="M 1057.85 980.268 C 1097.79 991.241 1126.19 1001.52 1160.39 1026.32 C 1148.79 1040.47 1132.57 1048.95 1132.27 1068.65 C 1132.16 1078.3 1135.99 1087.59 1142.87 1094.36 C 1149.65 1101.03 1158.85 1104.66 1168.36 1104.44 C 1187.46 1103.94 1197.74 1088.42 1209.82 1075.36 C 1236.66 1111.94 1247.15 1135.83 1255.6 1180 C 1238.68 1180.48 1217.35 1176.84 1204.64 1188.97 C 1197.99 1195.31 1194.52 1203.54 1194.12 1212.64 C 1193.64 1222.27 1197.12 1231.68 1203.76 1238.68 C 1217.8 1253.46 1237.27 1249.48 1256.75 1250.01 C 1249.77 1286.85 1235.82 1329.91 1211.24 1358.7 C 1198.14 1346.82 1188.04 1330.68 1170.81 1329.1 C 1160.68 1328.18 1150.63 1331.49 1143.04 1338.24 C 1136.34 1344.18 1132.32 1352.57 1131.89 1361.51 C 1131.1 1381.75 1149.02 1392.89 1161.88 1407.44 C 1139.96 1425.74 1093.26 1445.03 1064.15 1449.9 C 1061.03 1450.43 1061.78 1450.42 1059.92 1448.97 C 1059.91 1441.75 1060.01 1434.14 1060.21 1426.92 C 1060.76 1406.19 1044.03 1390.34 1023.15 1391.12 C 1014.24 1391.44 1005.85 1395.33 999.846 1401.92 C 987.13 1415.6 989.639 1431.87 989.881 1449.4 C 954.248 1446.05 915.081 1427.66 885.161 1408.47 C 891.419 1402.56 897.724 1396.54 903.875 1390.43 C 928.599 1365.91 912.911 1327.34 877.439 1329.43 C 858.535 1330.54 848.164 1346.31 836.383 1359.59 C 810.876 1327.92 796.517 1290.31 790.453 1250.38 C 808.832 1250.48 828.723 1254.37 843.259 1240.47 C 850.14 1233.79 854.012 1224.61 853.984 1215.02 C 854.033 1205.11 850.108 1195.6 843.086 1188.61 C 829.79 1175.38 810.06 1178.89 791.63 1179.07 C 802.13 1131.4 809.066 1115.65 835.404 1075.89 C 846.298 1088.22 859.619 1103.59 877.018 1105.13 C 886.497 1105.96 895.919 1103.01 903.229 1096.92 C 911.035 1090.36 915.741 1080.84 916.206 1070.65 C 917.021 1051.02 899.975 1040.54 887.399 1027.37 C 914.287 1004.36 953.878 990.147 987.763 981.25 C 988.572 984.425 987.763 1000.46 987.998 1005.41 C 988.369 1015.02 992.757 1024.03 1000.09 1030.25 C 1007.55 1036.64 1017.06 1039.96 1026.88 1039.09 C 1035.8 1038.34 1044.03 1033.99 1049.67 1027.04 C 1061.11 1013.09 1059.16 996.76 1057.85 980.268 z" fill="rgb(255,255,255)" transform="translate(0,0)"></path>
<path d="M 1093.98 1107.17 C 1113.51 1105.43 1127.83 1116.56 1116.56 1137.27 C 1112.68 1144.42 1100.08 1155.87 1094.13 1162.26 C 1084.38 1172.95 1074.7 1183.71 1065.12 1194.55 C 1077.96 1236.05 1048.84 1265.11 1007.41 1256.61 C 997.268 1252.25 990.491 1248.56 983.995 1238.97 C 976.812 1228.26 974.267 1215.09 976.937 1202.48 C 979.434 1191.02 986.362 1181.01 996.21 1174.63 C 1009 1166.45 1021.81 1166.66 1035.85 1169.73 C 1046.65 1156.58 1081.52 1113.88 1093.98 1107.17 z" fill="#1A2332" transform="translate(0,0)"></path>
<path d="M 514.357 392.004 L 1185.16 391.877 L 1403.16 391.96 C 1445.74 392.007 1491.4 391.266 1533.71 392.88 C 1518.38 441.618 1495.6 474.325 1457.47 507.782 C 1419.27 539.978 1370.45 563.435 1321.77 574.769 C 1305.66 578.588 1289.25 581.034 1272.73 582.081 C 1245.7 583.599 1209.94 582.581 1182.42 582.508 C 1132.28 582.286 1082.14 582.346 1032.01 582.687 L 869.008 582.558 C 832.169 582.56 783.451 584.185 747.838 578.695 C 704.186 572.264 662.365 556.757 625.073 533.175 C 574.767 501.873 528.017 450.84 514.357 392.004 z" fill="rgb(255,255,255)" transform="translate(0,0)"></path>
<metadata><recraft-signature>{"signed_by": "recraft", "signature_b64": "7qovcemXL5SiKEuxSZhWHSsoaG2CoBvZ+3lUSOKVcUcAW2eOTB4rVtPjgdorcVqT8BUO2vkPd7I+LdgNEqbXCQ==", "signing_algo": "Ed25519", "generation_timestamp": 1777391754, "identifier": "f6c8f389-779c-4060-8791-5b559d60e056"}</recraft-signature></metadata></svg>