<svg xmlns="http://www.w3.org/2000/svg" height="1024" preserveAspectRatio="none" style="display: block;" version="1.1" viewBox="0 0 2048 2048" width="1024">
<path d="M 0 0 L 2048 0 L 2048 2048 L 0 2048 L 0 0 z" fill="rgb(255,255,255)" transform="translate(0,0)"></path>
<path d="M 994.743 341.426 C 1000.34 340.648 1014.12 340.706 1020.23 340.573 C 1150.02 337.751 1273.92 405.318 1364.54 495.77 C 1399.93 530.54 1432.21 568.336 1461.02 608.727 C 1655.57 882.802 1758.07 1352.93 1497.48 1623.61 C 1469.85 1652.3 1423.73 1688.57 1388.56 1705.41 C 1379.83 1709.59 1290.01 1708.07 1274.36 1708.08 L 1056.5 1708.04 L 785.934 1707.92 L 728.794 1708.17 C 713.448 1708.33 681.896 1710.38 668.94 1706.12 C 617.294 1689.14 567.247 1643.48 531.514 1603.98 C 446.289 1509.77 407.419 1381.99 397.492 1257.76 C 370.316 917.693 607.927 369.24 994.743 341.426 z" fill="#1A2332" transform="translate(0,0)"></path>
<path d="M 1001.8 421.421 C 1104.3 410.741 1212.82 466.478 1286.62 533.391 C 1319.49 563.19 1358.67 603.369 1384.55 639.787 C 1488.13 785.576 1555.8 964.823 1569.78 1143.4 C 1580.85 1285.82 1555.64 1437.63 1458.11 1547.68 C 1444.15 1563.43 1379.62 1626.52 1358.85 1626.93 C 1328.98 1627.51 1286.78 1626.74 1256.17 1626.73 L 1046.5 1626.95 L 788.871 1627.03 L 728.235 1627.12 C 720.303 1627.14 692.046 1627.76 685.742 1625.41 C 670.158 1619.59 645.846 1601.87 633.04 1591.12 C 537.033 1510.52 489.478 1390.27 478.323 1268.03 C 475.427 1237.53 474.445 1206.87 475.382 1176.25 C 486.479 892.254 678.259 450.314 1001.8 421.421 z" fill="rgb(255,255,255)" transform="translate(0,0)"></path>
<path d="M 1006.23 687.398 C 1016.77 685.801 1034.78 686.595 1045.5 687.536 C 1104.88 692.75 1164.7 725.365 1206.21 767.601 C 1289.71 852.561 1323.99 982.247 1300.61 1098.27 C 1296.67 1117.8 1288.04 1132.1 1266.09 1133.41 C 1241.8 1134.35 1217.17 1133.89 1192.8 1133.87 L 1041.5 1133.71 C 984.332 1133.33 927.162 1133.3 869.993 1133.61 L 813.969 1133.93 C 804.132 1133.98 775.33 1135.18 767.312 1130.85 C 746.612 1118.7 743.979 1089.06 741.372 1068.32 C 720.565 902.748 826.34 704.481 1006.23 687.398 z" fill="#1A2332" transform="translate(0,0)"></path>
<path d="M 1022.96 748.436 C 1090.12 749.574 1143.31 782.312 1184.1 834.871 C 1236.75 902.726 1253.97 989.969 1242.48 1074.14 C 1169.68 1074.85 1096.88 1074.85 1024.08 1074.13 L 803.339 1074.21 C 801.013 1065.51 800.005 1051.45 799.609 1042.43 C 796.146 963.514 824.513 876.595 878.071 817.977 C 919.127 773.042 962.426 751.095 1022.96 748.436 z" fill="rgb(255,255,255)" transform="translate(0,0)"></path>
<path d="M 978.881 893.953 C 989.366 854.321 1009.01 798.744 1022.83 760.352 L 1048.18 829.147 C 1055.93 850.288 1064.06 871.659 1069.54 893.503 C 1095.2 912.829 1105.67 946.371 1095.55 976.86 C 1085.44 1007.35 1057 1027.99 1024.88 1028.15 C 992.758 1028.31 964.115 1007.95 953.699 977.565 C 943.283 947.179 953.416 913.534 978.881 893.953 z" fill="#1A2332" transform="translate(0,0)"></path>
<path d="M 978.881 893.953 C 989.366 854.321 1009.01 798.744 1022.83 760.352 L 1048.18 829.147 C 1055.93 850.288 1064.06 871.659 1069.54 893.503 C 1042.66 873.253 1005.56 873.437 978.881 893.953 z" fill="#1A2332" transform="translate(0,0)"></path>
<path d="M 1105.75 1322.39 C 1106.05 1322.35 1106.34 1322.32 1106.64 1322.28 C 1141.16 1323.05 1178.55 1315.19 1206.55 1339.84 C 1235.47 1365.3 1231.73 1390.69 1232.1 1425.4 C 1232.4 1452.78 1232.91 1474.19 1213.7 1495.71 C 1199.36 1511.71 1184.37 1518.03 1163.25 1519.56 C 1154.04 1520.05 1142.57 1519.68 1133.18 1519.73 C 1108.7 1519.79 1087.13 1520.49 1066.9 1504.65 C 1037.74 1481.83 1036.37 1454.15 1036.78 1419.99 C 1037.11 1392.58 1034.76 1372.24 1053.48 1349.14 C 1067.81 1331.47 1083.7 1324.84 1105.75 1322.39 z" fill="#1A2332" transform="translate(0,0)"></path>
<path d="M 1100.31 1386.14 C 1117.6 1385.03 1145.62 1385.23 1163.7 1386.37 C 1164.65 1386.71 1168.21 1387.31 1168.25 1388.55 C 1168.67 1403.54 1172.24 1443.54 1167.72 1455.43 C 1158.92 1457.11 1109.22 1457.45 1101.79 1453.25 C 1098.85 1446.71 1098.4 1392.9 1100.31 1386.14 z" fill="#1A2332" transform="translate(0,0)"></path>
<path d="M 884.765 1322.4 C 917.319 1321.7 954.858 1317.1 981.925 1338.2 C 1010.66 1360.61 1009.96 1389.74 1009.26 1422.78 C 1008.71 1448.59 1011.72 1469.22 993.163 1490.63 C 979.162 1507.29 963.939 1516.79 942.251 1519.13 C 930.493 1519.87 920.145 1519.58 908.622 1519.68 C 883.993 1520.03 862.072 1519.2 842.366 1502.69 C 814.159 1479.05 815.448 1450.72 815.857 1417.16 C 816.171 1391.4 814.594 1368.4 833.095 1347.36 C 847.242 1331.28 863.93 1324.03 884.765 1322.4 z" fill="#1A2332" transform="translate(0,0)"></path>
<path d="M 879.209 1386.02 C 887.154 1385.57 946.068 1383.18 946.028 1390.27 C 945.961 1402.2 948.969 1447.51 944.736 1454.75 C 936.57 1456.57 886.386 1456.86 879.705 1453.13 C 876.722 1445.97 877.104 1393.31 879.209 1386.02 z" fill="#1A2332" transform="translate(0,0)"></path>
<path d="M 1408.65 997.272 C 1421.29 996.697 1457.03 995.493 1466.39 1000.88 C 1490.24 1014.6 1485.51 1047.84 1457.84 1055.79 C 1445.25 1057.56 1408.53 1059.23 1397.89 1052.17 C 1376.25 1037.8 1380.31 1002.81 1408.65 997.272 z" fill="#1A2332" transform="translate(0,0)"></path>
<path d="M 618.58 822.161 C 633.027 821.011 659.036 833.17 673.26 838.596 C 680.951 841.53 688.061 848.035 690.791 856.173 C 692.975 862.796 692.387 870.022 689.16 876.205 C 684.268 885.571 677.771 888.631 668.538 891.81 C 652.293 892.802 636.309 887.934 621.292 882.212 C 589.366 870.047 582.046 834.756 618.58 822.161 z" fill="#1A2332" transform="translate(0,0)"></path>
<path d="M 609.885 996.445 C 623.68 996.171 641.252 995.896 652.13 1005.45 C 657.867 1010.48 661.251 1017.67 661.47 1025.29 C 661.766 1033.17 658.819 1040.83 653.316 1046.47 C 643.231 1056.91 629.781 1056.03 616.25 1056.51 C 600.895 1057.21 587.587 1059.32 575.285 1047.93 C 569.341 1042.49 565.87 1034.87 565.674 1026.82 C 565.501 1019.62 568.223 1012.65 573.229 1007.48 C 583.122 997.212 596.788 997.004 609.885 996.445 z" fill="#1A2332" transform="translate(0,0)"></path>
<path d="M 709.795 667.088 C 732.26 665.725 739.921 680.12 754.502 693.617 C 774.852 712.452 776.749 743.02 745.466 750.911 C 725.047 751.715 717.818 740.132 703.668 728.048 C 681.023 708.71 674.565 677.643 709.795 667.088 z" fill="#1A2332" transform="translate(0,0)"></path>
<path d="M 1330.22 667.126 C 1345.76 666.559 1352.43 669.517 1362.35 683.566 C 1376.74 703.949 1333.01 744.629 1315.98 751.087 C 1301.9 752.908 1288.13 748.762 1282.17 734.639 C 1272.04 710.593 1298.2 692.945 1312.71 678.172 C 1317.28 673.521 1324.06 669.226 1330.22 667.126 z" fill="#1A2332" transform="translate(0,0)"></path>
<path d="M 1187.87 562.101 C 1224.01 560.204 1228.46 591.518 1214.21 617.241 C 1205.66 632.678 1206.12 646.373 1185.45 651.91 C 1153.61 654.983 1142.85 626.666 1155.57 601.839 C 1164.9 583.631 1165.21 568.085 1187.87 562.101 z" fill="#1A2332" transform="translate(0,0)"></path>
<path d="M 1015.23 525.25 C 1022.07 524.416 1026.95 524.163 1033.51 526.842 C 1040.86 529.86 1046.71 535.685 1049.76 543.027 C 1054.37 553.923 1055.25 588.598 1049.78 599.983 C 1044.71 610.56 1040.89 613.306 1030.91 617.363 C 997.002 622.645 990.889 593.989 992.858 567.654 C 994.316 548.163 993.893 533.217 1015.23 525.25 z" fill="#1A2332" transform="translate(0,0)"></path>
<path d="M 854.87 561.238 C 879.965 562.055 887.275 589.729 894.559 609.193 C 902.778 631.157 892.478 647.332 871.168 653.196 C 849.05 653.505 845.344 640.507 836.432 624.092 C 823.069 599.476 818.987 568.532 854.87 561.238 z" fill="#1A2332" transform="translate(0,0)"></path>
<path d="M 1421.28 821.15 C 1434.6 820.249 1447.72 830.638 1449.9 844.033 C 1451.31 852.404 1449.2 860.984 1444.07 867.749 C 1436.06 878.263 1406.24 892.255 1393.41 893.927 C 1387.1 893.391 1383.71 893.06 1378.24 889.652 C 1371.47 885.477 1366.65 878.771 1364.85 871.026 C 1362.14 859.156 1368.09 845.666 1378.18 839.505 C 1389.88 832.361 1408.04 824.087 1421.28 821.15 z" fill="#1A2332" transform="translate(0,0)"></path>
<metadata><recraft-signature>{"signed_by": "recraft", "signature_b64": "lheX8sD0Wg9fT2MxFBbW+Zov8ZiQfH3m88mBthIsXiihBxEWG8dg+W6VsQa/5+jn7y04JD+gp8orHckYZ9coAg==", "signing_algo": "Ed25519", "generation_timestamp": 1777391671, "identifier": "89714ce9-0fa6-4eab-83c6-579abac96c50"}</recraft-signature></metadata></svg>