<svg xmlns="http://www.w3.org/2000/svg" height="1024" preserveAspectRatio="none" style="display: block;" version="1.1" viewBox="0 0 2048 2048" width="1024">
<path d="M 0 0 L 2048 0 L 2048 2048 L 0 2048 L 0 0 z" fill="rgb(255,255,255)" transform="translate(0,0)"></path>
<path d="M 932.108 483.5 C 967.697 481.569 1018.53 482.501 1054.99 482.741 C 1207.66 483.747 1367.3 493.231 1517.77 519.248 C 1586.93 534.996 1679.85 545.289 1727.39 603.369 C 1737.92 616.228 1736.35 641.576 1736.36 657.085 C 1736.63 705.555 1732.64 753.954 1724.42 801.724 C 1688.84 1003.12 1593.12 1170.65 1433.71 1300.3 C 1414.64 1315.81 1393.01 1331.35 1372.67 1345.23 C 1361 1353.2 1347.23 1359.64 1335.32 1368.09 L 1334.12 1368.95 C 1351.93 1421.7 1374.32 1460.93 1420.22 1494.63 C 1434.77 1495.5 1448.78 1492.87 1461.56 1503.03 C 1469.02 1508.96 1473.48 1519.15 1474.06 1528.55 C 1474.72 1538.28 1471.27 1547.85 1464.54 1554.92 C 1450.23 1569.8 1424.37 1566.08 1405.11 1565.97 C 1384.52 1565.83 1363.92 1565.78 1343.32 1565.84 L 1111.75 1566.42 C 997.414 1567.7 880.932 1566.05 766.391 1566.06 L 660.174 1566.2 C 645.281 1566.28 630.333 1566.52 615.474 1566.43 C 604.298 1566.15 592.525 1566.64 584.47 1557.65 C 559.834 1530.14 579.662 1492.5 616.333 1495.96 C 621.699 1496.47 631.458 1496 636.91 1496.04 C 676.061 1453.92 694.423 1424.21 713.875 1369.68 C 657.764 1336.45 613.888 1304.3 565.889 1259.83 C 412.917 1118.09 318.403 902.373 310.851 694.493 C 310.393 681.901 310.516 669.272 310.57 656.674 C 310.676 631.67 310.434 611.792 328.767 592.431 C 411.862 504.676 802.529 487.573 932.108 483.5 z" fill="#1A2332" transform="translate(0,0)"></path>
<path d="M 1659.78 712.032 C 1661.68 721.183 1655.02 766.842 1653.23 780.052 C 1623.15 1001.41 1479.53 1208.06 1283.03 1314.04 C 1280.59 1315.36 1215.3 1314.96 1208.23 1314.96 L 986.66 1314.48 L 831.661 1314.96 C 811.727 1314.94 788.139 1315.39 768.355 1314.13 C 763.035 1313.79 739.703 1300.12 733.732 1296.5 C 652.51 1247.25 581.709 1180.61 526.82 1103.47 C 444.453 988.875 395.65 853.594 385.887 712.808 C 446.27 737.809 546.89 754.205 611.573 762.631 C 861.351 793.141 1113.74 795.897 1364.12 770.85 C 1452.35 762.102 1577.49 745.011 1659.78 712.032 z" fill="rgb(255,255,255)" transform="translate(0,0)"></path>
<path d="M 982.165 554.498 C 1104.02 551.603 1241.87 559.892 1362.72 571.625 C 1423.8 577.555 1610.08 602.862 1655.48 636.428 C 1632.54 645.059 1609.04 654.149 1585.24 659.996 C 1415.11 701.793 1234.95 709.048 1060.85 714.062 C 914.712 716.067 768.6 708.262 623.503 690.701 C 570.673 683.872 426.776 663.997 387.911 634.344 C 410.739 619.617 463.45 606.671 490.674 600.88 C 652.788 566.394 817.096 557.337 982.165 554.498 z" fill="rgb(255,255,255)" transform="translate(0,0)"></path>
<path d="M 1182.18 607.235 C 1206.77 605.151 1231.19 605.453 1239.29 633.372 C 1234.04 651.882 1224.87 655.186 1207.24 658.811 C 1145.73 664.263 1127.87 617.553 1182.18 607.235 z" fill="#1A2332" transform="translate(0,0)"></path>
<path d="M 1016.34 603.368 C 1030.74 602.981 1045.63 603.449 1058.03 612.027 C 1067.65 618.675 1072.12 631.856 1064.07 641.614 C 1056.82 650.407 1045.09 653.263 1034.12 654.217 C 1018.53 654.63 1001.75 655.267 988.49 645.398 C 979.347 638.595 975.79 625.776 983.793 616.555 C 992.376 606.664 1004 604.516 1016.34 603.368 z" fill="#1A2332" transform="translate(0,0)"></path>
<path d="M 844.645 607.29 C 900.167 602.972 919.249 647.661 864.984 658.4 C 846.451 660.574 815.036 657.786 811.433 634.77 C 810.638 629.677 812.02 624.483 815.241 620.458 C 822.01 611.9 834.362 608.831 844.645 607.29 z" fill="#1A2332" transform="translate(0,0)"></path>
<path d="M 1359.96 618.359 C 1378.45 617.052 1409.61 619.012 1414.01 641.983 C 1414.94 646.623 1413.9 651.441 1411.13 655.277 C 1404.62 664.457 1392.82 667.192 1382.51 668.914 C 1367.67 669.387 1352.97 669.701 1339.64 661.658 C 1329.41 655.48 1323.38 642.147 1331.84 631.778 C 1339.27 622.679 1348.74 619.777 1359.96 618.359 z" fill="#1A2332" transform="translate(0,0)"></path>
<path d="M 665.171 616.203 C 716.243 611.469 744.508 650.752 689.323 666.282 C 631.321 673.488 611.024 627.512 665.171 616.203 z" fill="#1A2332" transform="translate(0,0)"></path>
<path d="M 791.102 1386.53 C 838.778 1384.27 897.728 1386.4 946.643 1386.28 L 1264.71 1386.3 C 1274.58 1427.43 1295.74 1462.46 1320.88 1495.86 C 1301.55 1496.51 1278.13 1495.94 1258.5 1495.93 L 729.098 1496.09 C 746.955 1469.38 759.415 1450.85 772.548 1421.15 C 775.511 1414.58 778.145 1407.87 780.441 1401.03 C 783.622 1391.6 781.328 1387.61 791.102 1386.53 z" fill="rgb(255,255,255)" transform="translate(0,0)"></path>
<metadata><recraft-signature>{"signed_by": "recraft", "signature_b64": "toTDlM4vbEX2y8KYxdqEVzEybwwbdbxf5I5gshR/xd8vwT53suGY/hF7Borm6zoBlyhz14QNrdzY/LDY7kp2Bg==", "signing_algo": "Ed25519", "generation_timestamp": 1777391696, "identifier": "feaf5fc5-d1a1-49ef-b617-9c3dc2b9f248"}</recraft-signature></metadata></svg>