<svg xmlns="http://www.w3.org/2000/svg" height="1024" preserveAspectRatio="none" style="display: block;" version="1.1" viewBox="0 0 2048 2048" width="1024">
<path d="M 0 0 L 2048 0 L 2048 2048 L 0 2048 L 0 0 z" fill="rgb(255,255,255)" transform="translate(0,0)"></path>
<path d="M 1091.77 386.42 C 1096.15 386.13 1100.54 385.922 1104.93 385.798 C 1347.65 379.295 1559.02 573.953 1567.15 818.413 C 1568.82 868.718 1567.21 921.302 1567.23 971.786 L 1567.47 1311.86 L 1567.48 1521.75 C 1567.5 1542.73 1567.65 1563.71 1567.92 1584.69 C 1568.1 1611.17 1573.32 1653.3 1534.86 1657.39 C 1525.47 1658.39 1513.92 1657.59 1504.23 1657.59 L 1452.72 1657.85 L 1255.8 1657.33 L 710.843 1657.23 L 649.08 1657.22 C 606.522 1657.2 575.749 1657.67 542.41 1624.74 C 520.969 1603.56 508.969 1574.64 509.125 1544.5 C 509.037 1512.77 520.493 1487.52 542.509 1465.08 C 579.335 1427.55 620.355 1433.8 669.089 1433.95 L 669.21 1312.33 C 627.119 1272.47 587.724 1228.87 546.181 1187.8 C 514.137 1156.12 477.454 1121.18 448.976 1086.04 C 438.657 1073.31 427.245 1041.73 425.395 1025.29 C 410.242 890.574 561.164 806.493 670.082 888.931 C 671.292 861.408 669.448 834.449 671.647 805.958 C 678.309 709.803 715.599 618.311 778.05 544.895 C 857.132 452.126 970.172 395.024 1091.77 386.42 z" fill="#1A2332" transform="translate(0,0)"></path>
<path d="M 933.424 508.857 C 939.923 510.809 1010.26 585.149 1021.81 595.361 C 1030.64 603.168 1062.97 634.647 1069.12 643.315 C 1056.73 657.569 1032.23 680.298 1018.2 694.3 L 905.806 806.335 C 874.329 837.994 896.741 854.632 920.736 878.408 L 954.938 912.557 L 1067.81 1025.47 C 1018.09 1078.78 962.797 1130.43 911.436 1182.45 C 873.583 1220.8 893.233 1231.17 922.752 1261 L 997.962 1336.27 C 1020.57 1358.75 1043.03 1381.38 1065.32 1404.18 C 1054.9 1413.2 1044.3 1424.15 1034.43 1433.97 L 744.959 1433.93 L 744.841 1023.83 L 744.925 897.175 C 744.889 843.896 742.296 799.171 755.175 747.123 C 780.686 644.032 844.125 563.778 933.424 508.857 z" fill="rgb(255,255,255)" transform="translate(0,0)"></path>
<path d="M 773.235 1508.26 C 803.276 1506.92 841.695 1507.93 872.286 1507.92 L 1061.47 1507.94 L 1344.17 1507.93 C 1393.21 1507.92 1443.32 1507.3 1492.25 1508.03 C 1492.71 1532.8 1492.84 1557.58 1492.63 1582.36 L 1464.14 1582.26 L 976.658 1582.46 L 848.52 1582.25 C 832.045 1582.26 778.149 1584.65 765.497 1578.62 C 756.731 1574.35 750.048 1566.74 746.95 1557.49 C 739.046 1534.52 750.806 1515.36 773.235 1508.26 z" fill="rgb(255,255,255)" transform="translate(0,0)"></path>
<path d="M 1120.19 696.571 C 1124.36 697.945 1246.76 819.866 1259.69 833.958 C 1215.44 880.78 1163.99 926.064 1120.71 973.048 C 1118.68 972.336 996.002 850.361 981.238 835.882 C 995.423 820.365 1012.9 803.539 1027.89 788.511 L 1120.19 696.571 z" fill="rgb(255,255,255)" transform="translate(0,0)"></path>
<path d="M 1311.65 887.675 C 1315.95 888.983 1436.69 1011.12 1450.6 1025.35 C 1437.7 1037.19 1419.52 1056.57 1406.67 1069.33 C 1375.11 1100.7 1343.71 1132.23 1312.48 1163.93 C 1304.79 1158.38 1267.92 1119.94 1260.31 1112.09 C 1232.2 1083.03 1200.63 1054.3 1173.26 1025 C 1218.32 979.477 1264.95 931.347 1311.65 887.675 z" fill="rgb(255,255,255)" transform="translate(0,0)"></path>
<path d="M 1304.21 510.596 C 1354.56 533.51 1416.3 602.691 1444 649.79 C 1440.17 653.596 1436.05 657.293 1432.13 661.036 C 1391.28 700.05 1352.68 741.23 1311.98 780.413 C 1305.81 778.263 1187.71 658.238 1172.71 642.963 C 1196.59 617.215 1223.95 593.213 1247.94 567.362 C 1265.97 547.932 1285.07 528.926 1304.21 510.596 z" fill="rgb(255,255,255)" transform="translate(0,0)"></path>
<path d="M 1120.79 1078.71 C 1131.35 1086.6 1166.26 1122.2 1176.97 1133.32 C 1203.25 1160.6 1233.43 1188.02 1259.11 1215.14 L 1120.93 1354.59 C 1117.35 1351.18 1113.46 1347.59 1110.06 1344.03 C 1068.42 1300.34 1023.74 1259.32 981.316 1216.46 C 1028.19 1173.18 1073.84 1121.61 1120.79 1078.71 z" fill="rgb(255,255,255)" transform="translate(0,0)"></path>
<path d="M 571.08 930.4 C 605.222 927.49 623.859 945.692 645.21 968.568 C 653.507 977.381 661.892 986.109 670.366 994.751 C 669.31 1065.42 670.522 1136.56 669.748 1207.3 C 657.816 1195.93 645.249 1182.62 633.6 1170.78 L 550.826 1087.2 C 529.365 1065.32 502.083 1044.25 498.95 1012.07 C 497.081 992.942 503.009 973.872 515.391 959.177 C 529.753 941.88 548.923 932.576 571.08 930.4 z" fill="rgb(255,255,255)" transform="translate(0,0)"></path>
<path d="M 1311.7 1267.71 C 1322.78 1277.3 1340.89 1297.59 1352.61 1308.98 C 1394.86 1350.35 1436.82 1392.01 1478.5 1433.95 C 1432.5 1433.68 1386.5 1433.66 1340.5 1433.9 L 1201.43 1434.11 C 1195.01 1425.66 1181.39 1413.53 1173.31 1405.92 C 1184.46 1396.59 1197.59 1382.33 1208.36 1372.07 C 1243.53 1338.55 1276.62 1301.04 1311.7 1267.71 z" fill="rgb(255,255,255)" transform="translate(0,0)"></path>
<path d="M 1491.33 1090.72 C 1493.45 1095.39 1492.96 1318.41 1493.1 1344.48 C 1471.77 1323.81 1450.56 1303 1429.49 1282.07 L 1364.31 1216.83 C 1405.81 1174.24 1450.46 1133.02 1491.33 1090.72 z" fill="rgb(255,255,255)" transform="translate(0,0)"></path>
<path d="M 1475.86 720.702 C 1478.95 723.437 1481.69 735.672 1482.79 739.93 C 1495.17 787.886 1493.1 835.624 1492.63 884.714 L 1492.51 962.244 C 1474.65 945.595 1454.87 925.143 1436.97 907.795 C 1413.02 882.938 1387.9 859.146 1363.88 834.15 C 1378.6 817.624 1397.8 799.323 1413.76 783.56 C 1434.81 762.954 1455.51 741.998 1475.86 720.702 z" fill="rgb(255,255,255)" transform="translate(0,0)"></path>
<path d="M 1114.6 459.443 C 1157.04 458.786 1191.6 464.591 1231.73 477.613 C 1208.99 500.461 1186.35 523.426 1163.84 546.507 C 1150.27 560.505 1138 573.88 1123.75 587.222 L 1121.45 588.537 C 1118.05 587.103 1018.1 487.36 1009.29 476.841 C 1038.8 464.086 1082.83 461.194 1114.6 459.443 z" fill="rgb(255,255,255)" transform="translate(0,0)"></path>
<path d="M 612.748 1507.12 C 627.361 1506.48 653.317 1507.78 669.162 1507.96 C 669.312 1532.85 669.327 1557.74 669.206 1582.63 L 640.718 1582.77 C 628.432 1583.19 615.111 1584.99 604.114 1579.47 C 594.678 1574.65 587.675 1566.12 584.783 1555.92 C 581.82 1545.64 583.136 1534.59 588.433 1525.29 C 594.196 1515.04 601.699 1510.1 612.748 1507.12 z" fill="rgb(255,255,255)" transform="translate(0,0)"></path>
<metadata><recraft-signature>{"signed_by": "recraft", "signature_b64": "yFqHcgR6xIPsa7COlgefgXBLNeUwPtDqlGfOCXMK3CSX9tIc9ktRL7JEOY2vmETEHwldPbredEvuwu/41DOaDQ==", "signing_algo": "Ed25519", "generation_timestamp": 1777391743, "identifier": "2aede1ac-b0bb-4cc5-9750-2ccdb9f91e1f"}</recraft-signature></metadata></svg>