<svg xmlns="http://www.w3.org/2000/svg" height="1024" preserveAspectRatio="none" style="display: block;" version="1.1" viewBox="0 0 2048 2048" width="1024">
<path d="M 0 0 L 2048 0 L 2048 2048 L 0 2048 L 0 0 z" fill="rgb(255,255,255)" transform="translate(0,0)"></path>
<path d="M 618.129 342.393 C 632.829 340.417 656.624 341.891 672.024 341.967 L 749.414 341.94 L 1051.3 342.169 L 1318.09 342.118 L 1420.46 341.966 C 1437.86 341.979 1455.24 342.025 1472.64 342.269 C 1483.87 341.757 1499.96 354.141 1501.65 365.396 C 1504.1 381.685 1503.01 402.013 1503.02 418.798 C 1502.9 452.093 1503.07 485.388 1503.54 518.68 C 1555.42 518.407 1549.39 547.664 1549.35 587.946 L 1549.44 651.889 L 1550.26 894.328 L 1549.55 1669.7 C 1549.55 1680.68 1548.25 1688.39 1539.84 1696.44 C 1535.32 1700.71 1529.74 1703.68 1523.68 1705.05 C 1514.81 1707.12 1494.24 1706.32 1483.98 1706.25 L 1432.5 1706.09 L 863.648 1706.07 L 706.091 1705.87 C 675.525 1705.98 640.355 1707.51 610.527 1704.66 C 571.111 1699.1 538.041 1675.79 517.582 1642.49 C 495.117 1605.92 498.985 1571.03 499.395 1530.49 C 499.71 1502.66 499.788 1474.82 499.63 1446.98 L 499.696 1107.39 L 499.775 669.99 L 499.225 531.09 C 498.928 480.892 491.541 434.757 525.295 392.86 C 548.182 364.223 581.651 346.028 618.129 342.393 z" fill="#1A2332" transform="translate(0,0)"></path>
<path d="M 721.703 589.08 L 1479.63 589.491 L 1479.86 1635.62 C 1399.53 1636.61 1318.1 1636.02 1237.71 1636.04 L 722.127 1636.05 L 721.703 589.08 z" fill="rgb(255,255,255)" transform="translate(0,0)"></path>
<path d="M 1155.04 859.242 C 1183.4 860.195 1191.63 883.613 1184.33 908.076 C 1194.23 907.819 1204.37 907.146 1212.6 913.519 C 1222.28 920.343 1227.68 942.372 1220.44 952.407 C 1202.59 977.155 1178.64 999.175 1159.32 1023.03 C 1197.19 1038.51 1221.17 1072.84 1211.9 1113.55 C 1209.21 1125.34 1183.77 1166.7 1176.74 1179.14 L 1074.1 1356.76 C 1065.38 1371.38 1057.4 1385.06 1037.97 1384.15 C 1028.52 1383.68 1019.69 1379.31 1013.58 1372.08 C 1002.82 1359.42 1004.39 1329.09 1003.53 1311.92 C 1002.34 1286.02 1000.95 1260.14 999.363 1234.26 L 992.252 1116.97 C 991.218 1100.05 989.121 1075.77 989.638 1059.37 C 990.159 1042.85 1003.06 1020.38 1016.36 1010.19 C 1037.31 994.136 1054.05 993.58 1078.95 996.328 C 1077.09 981.423 1075.66 966.358 1074.22 950.823 C 1072.03 927.291 1059.53 890.17 1092.06 881.939 C 1103.22 879.117 1111.39 882.81 1120.63 888.307 C 1129 870.141 1134.97 862.919 1155.04 859.242 z" fill="#1A2332" transform="translate(0,0)"></path>
<path d="M 1056.12 1062.91 C 1083.51 1072.51 1119.52 1083.82 1145.46 1093.95 C 1129.6 1122.57 1113.36 1153.7 1096.5 1181.4 C 1086.63 1198.37 1076.9 1215.42 1067.31 1232.55 C 1067.23 1216.2 1065.05 1196.99 1064.19 1180.36 C 1062.16 1141.23 1058.38 1101.99 1056.12 1062.91 z" fill="rgb(255,255,255)" transform="translate(0,0)"></path>
<path d="M 643.681 412.529 C 732.701 410.316 827.401 412.573 916.89 412.4 L 1433.58 412.157 C 1434.27 447.412 1433.73 484.066 1433.68 519.423 L 1358.75 519.776 L 862.376 520.186 L 696.914 520.011 C 671.466 519.914 644.409 520.373 619.076 519.156 C 606.738 518.564 594.437 512.977 585.468 504.243 C 575.307 494.31 569.53 480.732 569.42 466.522 C 569.344 451.834 575.483 438.75 585.855 428.709 C 604.231 410.92 620.665 412.532 643.681 412.529 z" fill="rgb(255,255,255)" transform="translate(0,0)"></path>
<path d="M 567.929 574.795 C 603.21 591.954 612.641 588.8 651.128 589.287 L 651.609 1635.81 C 646.732 1635.94 641.854 1636.03 636.976 1636.09 C 615.627 1636.3 600.379 1632.58 584.638 1617.43 C 564.119 1597.67 567.873 1571.93 567.809 1546.16 L 567.882 1472.01 L 567.933 1262.13 L 567.929 574.795 z" fill="rgb(255,255,255)" transform="translate(0,0)"></path>
<metadata><recraft-signature>{"signed_by": "recraft", "signature_b64": "wg3QD/TlzhUkO8r8/eOCZjs0ru1TqMqp0Fal7EQ6xRIqw5Wir1L6d3FZgOhMb6iSSSrgaZtIRzqUE3E1YXi/AA==", "signing_algo": "Ed25519", "generation_timestamp": 1777391778, "identifier": "ad8c5a2b-2001-4f05-8f7f-6812deb600a7"}</recraft-signature></metadata></svg>