<svg xmlns="http://www.w3.org/2000/svg" height="1024" preserveAspectRatio="none" style="display: block;" version="1.1" viewBox="0 0 2048 2048" width="1024">
<path d="M 0 0 L 2048 0 L 2048 2048 L 0 2048 L 0 0 z" fill="rgb(255,255,255)" transform="translate(0,0)"></path>
<path d="M 597.404 542.502 L 1334.28 542.274 L 1550.02 542.291 L 1613.48 542.206 C 1652.63 542.163 1679.7 541.451 1709.87 570.945 C 1743.56 603.883 1737.63 647.785 1737.46 690.604 C 1737.08 731.286 1737.17 771.972 1737.73 812.652 C 1747.93 815.643 1757.79 819.681 1767.16 824.7 C 1797.25 841.216 1819.45 869.121 1828.78 902.154 C 1833.46 918.185 1834.02 935.347 1833.6 951.947 C 1832.12 1010.37 1835.43 1069.95 1832.13 1128.19 C 1830.35 1159.57 1807.78 1196.3 1782.82 1214.6 C 1768.27 1225.45 1755.37 1230.55 1738.13 1235.42 C 1737.43 1279.09 1737.24 1322.77 1737.54 1366.44 C 1737.49 1384.63 1738.96 1419.96 1735.21 1435.97 C 1731.37 1451.99 1723.18 1466.64 1711.55 1478.31 C 1691.9 1498.15 1669.04 1505.91 1641.52 1505.88 C 1621.22 1505.86 1600.87 1505.87 1580.57 1505.85 L 1453.5 1505.85 L 691.422 1505.69 L 489.075 1505.84 L 431.151 1505.97 C 417.178 1505.99 401.021 1506.51 387.323 1504.67 C 352.667 1499.99 319.93 1470.29 313.473 1435.66 C 309.534 1414.54 311.013 1387.75 310.975 1366.06 L 310.743 1235.85 C 300.288 1233.45 287.547 1227.71 278.393 1222.27 C 248.046 1204.47 226.194 1175.15 217.817 1140.98 C 211.13 1114 214.424 1055.33 214.286 1024.94 L 214.057 963.829 C 214.036 948.875 213.289 932.023 215.884 917.389 C 224.826 866.946 261.125 825.539 310.984 813.267 L 310.75 642.259 C 310.666 612.525 316.441 592.431 337.296 570.341 C 370.627 535.039 419.361 542.705 464.225 542.607 L 597.404 542.502 z" fill="#1A2332" transform="translate(0,0)"></path>
<path d="M 396.017 618.136 C 415.51 616.919 439.254 617.538 459.074 617.614 L 559.599 617.911 L 871.553 617.964 L 1322.9 618.169 C 1428.94 617.963 1535.01 617.645 1641.04 618.514 C 1657.57 618.649 1663.55 621.671 1664.62 640.02 C 1665.54 655.713 1664.85 671.982 1664.77 687.758 L 1664.67 759.689 C 1664.57 778 1664.01 797.314 1664.99 815.514 C 1639.83 827.353 1623.09 842.239 1609.14 866.632 C 1595.58 890.341 1592.68 920.396 1621.12 934.73 C 1636.26 944.146 1660.47 937.685 1666.82 919.879 C 1676.95 891.472 1695.73 869.181 1730.63 884.858 C 1742.9 890.27 1752.35 900.574 1756.67 913.27 C 1762.94 931.498 1759.99 1007.14 1760.01 1031.31 L 1760.11 1083.82 C 1760.32 1116.08 1764.36 1153.12 1724.2 1164.67 C 1712.93 1167.88 1700.84 1166.33 1690.75 1160.38 C 1660.92 1142.94 1680.05 1118.02 1654.1 1104.25 C 1644.81 1099.39 1633.96 1098.44 1623.96 1101.61 C 1605.78 1107.55 1596.75 1127.86 1599.41 1145.92 C 1604.6 1181.27 1632.58 1212.73 1664.04 1227.94 L 1664.18 1353.16 C 1664.19 1373.4 1664.64 1395.08 1663.53 1415.25 C 1663.28 1419.84 1661.6 1422.66 1658.85 1426.22 C 1654.51 1430.21 1650.52 1432.63 1644.63 1432.71 C 1623.45 1433.02 1602.04 1432.93 1580.87 1432.95 L 1460.82 1433.12 L 1104.21 1433.16 L 612.388 1432.95 C 542.901 1432.82 466.352 1434.63 397.397 1432.79 C 391.209 1429.19 383.803 1423.51 383.285 1415.86 C 381.981 1396.62 382.579 1376.27 382.587 1356.97 L 382.901 1229.53 C 418.389 1210.05 454.227 1173.42 443.141 1127.34 C 435.733 1096.55 390.653 1091.96 379.325 1122.7 C 376.679 1129.88 375.468 1138.04 372.639 1145.17 C 362.324 1166.11 337.556 1171.85 317.345 1161.53 C 304.78 1155.17 295.27 1144.06 290.921 1130.67 C 288.334 1122.53 288.332 1114.39 288.324 1105.93 C 288.269 1052.28 288.728 998.709 288.498 945.05 C 288.436 930.536 288.54 920.985 295.727 907.447 C 314.161 872.72 367.739 868.02 377.296 911.964 C 381.467 929.784 405.814 940.474 421.917 933.23 C 446.998 921.948 448.399 896.017 439.573 873.586 C 429.185 847.188 408.356 827.997 383.055 816.529 C 382.459 797.991 380.582 635.443 384.696 626.258 C 386.663 621.866 391.866 619.769 396.017 618.136 z" fill="rgb(255,255,255)" transform="translate(0,0)"></path>
<path d="M 528.92 695.119 C 543.291 694.237 563.218 694.804 577.924 694.81 L 668.709 694.924 L 930.074 695.106 L 1307.27 694.962 C 1377.59 694.903 1448.18 694.825 1518.5 695.388 C 1524.53 695.437 1529.71 696.616 1535.22 698.958 C 1543.16 702.332 1551.53 711.404 1554.27 719.613 C 1562.67 744.752 1543.34 761.916 1533.54 781.701 C 1517.06 815.009 1543.97 822.63 1552.38 849.312 C 1557.85 866.644 1555.81 886.609 1546.07 902.044 C 1541.26 909.677 1535.26 916.734 1531.17 924.74 C 1517.91 950.729 1545.29 965.823 1551.77 988.797 C 1561.06 1021.74 1547.09 1036.15 1531.53 1062.56 C 1517.7 1086.05 1546.41 1104.7 1552.56 1128.23 C 1557.85 1148.47 1555.67 1162.29 1544.1 1180.2 C 1540.37 1185.97 1533.87 1193.62 1531.03 1199.68 C 1516.42 1230.96 1546.29 1247.58 1554.62 1273.54 C 1558.32 1285.07 1556.87 1296.22 1551.28 1306.64 C 1545.93 1316.6 1537.29 1321.93 1526.76 1324.93 C 1513.27 1325.98 1495.1 1325.59 1481.19 1325.69 C 1451.41 1325.89 1421.64 1325.94 1391.86 1325.84 L 1141.05 1325.44 L 716.008 1325.37 C 655.472 1325.29 594.818 1325.56 534.285 1325.38 C 528.34 1325.37 520.799 1324.28 515.827 1321.45 C 507.436 1316.67 497.59 1306.51 495.328 1297.19 C 488.877 1270.62 504.077 1260.45 515.305 1241.96 C 521.402 1230.11 521.237 1204.39 513.604 1194.22 C 495.536 1170.16 483.439 1144.59 503.772 1117 C 512.932 1104.57 519.281 1094.42 520.153 1077.92 C 521.422 1053.93 502.182 1043.8 495.822 1022.95 C 487.313 994.874 503.767 983.142 514.341 962.373 C 518.196 954.863 520.079 946.497 519.815 938.06 C 519.032 913.3 502.534 907.022 495.503 886.055 C 483.543 850.385 518.819 836.762 519.645 804.037 C 520.307 777.847 502.811 771.694 496.581 750.709 C 493.224 739.289 494.571 727.002 500.322 716.58 C 507.019 704.401 516.126 698.759 528.92 695.119 z" fill="#1A2332" transform="translate(0,0)"></path>
<path d="M 586.254 767.925 L 1459.99 767.762 C 1447.54 812.3 1453.96 833.257 1480.61 869.06 C 1462.93 894.348 1450.92 917.865 1453.86 949.343 C 1456.19 974.286 1466 988.495 1478.99 1009.24 C 1468.55 1028.65 1459.02 1033.5 1454.6 1058.62 C 1448.24 1094.82 1459.79 1116.38 1479.5 1145.37 C 1476.3 1149.7 1473.28 1154.16 1470.44 1158.74 C 1451.75 1188.69 1449.62 1210.82 1457.39 1244.57 C 1458.1 1247.04 1458.7 1249.6 1459.33 1252.09 L 1458.47 1253 C 1430.12 1254.21 1392.32 1252.97 1363.09 1253 L 1158.7 1253.01 L 585.846 1253.85 C 597.864 1211.94 594.325 1182.48 568.892 1147.03 C 597.409 1102.24 605.365 1054.97 569.547 1011.28 C 597.534 960.471 604.489 924.18 569.777 873.571 C 592.027 840.005 597.356 806.634 586.254 767.925 z" fill="rgb(255,255,255)" transform="translate(0,0)"></path>
<metadata><recraft-signature>{"signed_by": "recraft", "signature_b64": "CW7S+LpZj09IjFk/VlkPLgoG7yNZLbqB+zusBwqmwQPOmZglxZZmBfsI8chX5bItAP0GqJWNhyCkJb0YADj0Bg==", "signing_algo": "Ed25519", "generation_timestamp": 1777391709, "identifier": "b43cdc3f-411e-438b-b4f5-87915d09fd4e"}</recraft-signature></metadata></svg>