<svg xmlns="http://www.w3.org/2000/svg" height="1024" preserveAspectRatio="none" style="display: block;" version="1.1" viewBox="0 0 2048 2048" width="1024">
<path d="M 0 0 L 2048 0 L 2048 2048 L 0 2048 L 0 0 z" fill="rgb(255,255,255)" transform="translate(0,0)"></path>
<path d="M 1565.74 336.424 C 1578.08 334.815 1596.61 336.722 1608.78 339.433 C 1650.51 348.356 1686.84 373.792 1709.51 409.943 C 1733.01 447.48 1738.48 487.668 1728.19 530.688 C 1722.27 555.905 1709.69 579.074 1691.78 597.787 C 1682.33 607.602 1669.75 617.119 1659.14 625.88 C 1640.2 641.512 1620.65 656.594 1601.74 672.252 L 1367.54 862.909 C 1301.56 917.394 1235.21 971.421 1168.48 1024.99 C 1147.62 1042.09 1126.64 1059.05 1105.54 1075.86 C 1076.25 1099.3 1064.62 1115.86 1024.54 1106.19 C 995.285 1134.35 964.676 1168.09 935.765 1197.62 C 938.344 1202.42 940.816 1207.27 943.178 1212.18 C 982.652 1297.62 986.688 1395.22 954.403 1483.63 C 925.075 1565.86 859.669 1641.42 780.375 1679.34 C 696.034 1719.68 605.594 1723.39 517.756 1691.47 C 516.334 1690.97 514.921 1690.44 513.518 1689.88 C 444.229 1662.59 391.184 1620.68 350.316 1559.01 C 346.843 1553.77 341.066 1547.55 336.969 1542.45 C 291.405 1485.74 313.952 1407.39 351.66 1353.16 C 407.207 1274.13 492.431 1212.59 580.666 1174.81 C 660.818 1140.49 753.607 1117.57 840.647 1135.15 C 855.499 1138.14 870.113 1144.04 884.146 1149.59 C 911.531 1118.78 943.762 1089.44 970.494 1058.9 C 944.985 1014.35 967.266 990.21 995.721 956.616 C 1007.19 943.109 1018.53 929.491 1029.73 915.764 L 1156.62 759.608 L 1384.73 477.119 C 1405.85 451.133 1426.03 424.59 1447.6 398.839 C 1480.19 359.934 1514.95 340.701 1565.74 336.424 z" fill="#1A2332" transform="translate(0,0)"></path>
<path d="M 774.067 1198.45 C 783.5 1198.36 792.813 1198.34 802.175 1199.57 C 915.658 1214.44 895.299 1292.53 836.057 1358.7 C 817.906 1379.38 798.021 1398.46 776.62 1415.74 C 700.483 1476.28 587.435 1524.88 489.751 1530.25 C 460.974 1531.92 423.28 1529.21 400.555 1509.38 C 351.045 1466.17 408.895 1389.08 441.791 1354.38 C 522.269 1269.49 656.775 1203.33 774.067 1198.45 z" fill="rgb(255,255,255)" transform="translate(0,0)"></path>
<path d="M 1567.24 408.369 C 1619 400.799 1667.71 449.78 1661.36 501.305 C 1660.08 511.699 1654.72 532.068 1647.48 539.613 C 1621.39 566.81 1590 590.262 1560.48 613.754 L 1450.27 702.53 L 1092.39 995.805 C 1078.73 1007.08 1056.7 1026.21 1042.67 1035.22 C 1039.4 1032.19 1036.07 1028.51 1032.98 1025.24 L 1033.85 1024.07 C 1043.62 1011.21 1055.72 998.865 1065.82 986.215 C 1082.53 965.274 1099.37 944.527 1116.29 923.762 L 1300.57 695.552 L 1447.43 513.104 C 1468.76 486.7 1490.96 455.9 1514.15 431.677 C 1527.48 417.761 1548.33 410.891 1567.24 408.369 z" fill="rgb(255,255,255)" transform="translate(0,0)"></path>
<path d="M 1567.48 462.031 C 1586.18 459.507 1603.38 472.622 1605.9 491.321 C 1608.42 510.02 1595.3 527.218 1576.6 529.73 C 1557.91 532.24 1540.72 519.127 1538.2 500.437 C 1535.68 481.747 1548.79 464.555 1567.48 462.031 z" fill="#1A2332" transform="translate(0,0)"></path>
<path d="M 901.862 1389.88 L 902.449 1390.52 C 904.706 1403.18 886.964 1459.6 881.621 1471.78 C 818.376 1615.86 667.015 1680.45 520.672 1615.74 C 509.31 1610.62 500.329 1605.92 489.929 1599.12 C 507.225 1597.98 524.471 1596.16 541.626 1593.68 C 643.871 1579.19 732.245 1539.22 813.749 1476.05 C 844.934 1451.88 878.185 1421.42 901.862 1389.88 z" fill="rgb(255,255,255)" transform="translate(0,0)"></path>
<metadata><recraft-signature>{"signed_by": "recraft", "signature_b64": "9eWXhp+DH8vmCT3hu93EonTHWSDFsdAdur31e34DqD+/ILtdp/BsZAWqXQAQ3yPgDPZ51foaqtmacgWi6Qw2Cw==", "signing_algo": "Ed25519", "generation_timestamp": 1777391766, "identifier": "b453e92d-90dd-49a5-8aa5-bda0c556e61c"}</recraft-signature></metadata></svg>